<mxfile host="app.diagrams.net" modified="2024-07-13T05:11:40.238Z" agent="Mozilla/5.0 (X11; Linux x86_64; rv:127.0) Gecko/20100101 Firefox/127.0" version="24.6.5" etag="YvXWdzB5ZM_c6ty5yZ9U" type="github">
  <diagram name="Page-1" id="xkz_Wxj-pfFBkIwz8Xle">
    <mxGraphModel>
      <root>
        <mxCell id="0" />
        <mxCell id="1" parent="0" />
      </root>
    </mxGraphModel>
  </diagram>
</mxfile>
